<?xml version="1.0" standalone="no"?>
<!DOCTYPE svg PUBLIC "-//W3C//DTD SVG 20010904//EN"
 "http://www.w3.org/TR/2001/REC-SVG-20010904/DTD/svg10.dtd">
<svg version="1.0" xmlns="http://www.w3.org/2000/svg"
 width="250.000000pt" height="250.000000pt" viewBox="0 0 250.000000 250.000000"
 preserveAspectRatio="xMidYMid meet">
<metadata>
Created by potrace 1.11, written by Peter Selinger 2001-2013
</metadata>
<g transform="translate(0.000000,250.000000) scale(0.100000,-0.100000)"
fill="#000000" stroke="none">
<path d="M10 2071 c-14 -28 -12 -118 4 -173 8 -25 30 -68 48 -95 34 -50 89
-124 98 -133 3 -3 14 -16 25 -29 l20 -24 -22 12 c-13 6 -28 21 -34 34 -20 39
-121 136 -136 130 -10 -4 -13 -22 -12 -71 3 -93 35 -149 126 -222 6 -5 26 -18
45 -30 l33 -20 -27 0 c-15 0 -37 4 -51 9 -63 24 -56 -43 12 -117 33 -36 52
-47 113 -64 87 -24 114 -43 64 -44 -49 -1 -96 -38 -96 -76 0 -28 2 -30 27 -23
33 8 31 8 66 6 l28 -1 -36 -35 c-28 -29 -35 -43 -35 -75 0 -47 11 -50 67 -20
53 28 55 15 5 -32 -40 -37 -42 -41 -25 -54 10 -7 26 -16 37 -20 17 -6 18 -15
12 -123 -4 -64 -9 -137 -12 -163 -5 -47 -5 -47 23 -42 43 6 86 14 108 18 11 2
58 7 105 11 47 3 117 11 155 17 139 20 181 23 266 22 78 -2 88 -4 115 -29 27
-25 34 -27 101 -23 56 3 79 9 103 27 53 39 150 36 530 -15 102 -13 196 -27
209 -30 l23 -5 -6 78 c-3 43 -9 120 -12 171 l-6 93 37 -5 c35 -6 73 6 86 27 4
5 -13 27 -37 48 -50 43 -45 58 9 29 54 -29 67 -26 67 15 0 42 -22 80 -59 101
-25 14 -22 14 44 12 69 -3 70 -3 67 22 -4 30 -46 69 -84 77 -54 11 -29 26 79
48 32 6 105 72 130 117 25 46 10 74 -32 57 -11 -4 -33 -8 -49 -8 l-29 -1 39
26 c120 81 152 129 161 237 8 97 -5 102 -81 29 -33 -31 -53 -47 -45 -36 8 12
32 48 55 80 22 33 48 81 57 108 19 56 22 147 7 177 -21 39 -37 20 -60 -69 -21
-88 -23 -90 -93 -159 -126 -122 -276 -225 -389 -267 -41 -15 -53 -16 -83 -5
-34 13 -39 21 -47 74 -3 19 -11 20 -153 19 l-150 0 -79 -38 c-59 -29 -97 -56
-149 -109 -60 -61 -71 -68 -79 -53 -12 21 -68 87 -88 103 -21 17 -127 68 -173
83 -35 11 -123 15 -269 11 -56 -1 -57 -1 -60 -33 -2 -22 -11 -37 -29 -47 -24
-13 -31 -11 -108 27 -127 64 -351 245 -385 312 -7 14 -21 58 -31 98 -18 74
-35 90 -55 53z m2480 -63 c0 -63 -19 -140 -33 -131 -6 4 -7 1 -2 -6 9 -15 -74
-140 -92 -141 -7 0 -12 -3 -12 -7 4 -22 -2 -33 -13 -27 -7 4 -10 4 -6 -1 4 -4
-4 -19 -18 -32 -14 -12 -22 -23 -18 -23 4 0 -5 -11 -20 -25 -15 -14 -23 -25
-19 -25 5 0 14 5 19 10 6 6 24 12 41 13 17 1 29 5 28 8 -9 14 115 159 137 159
7 0 9 -21 5 -66 -8 -81 -41 -143 -100 -184 -23 -16 -49 -36 -57 -43 -25 -22
-51 -28 -69 -15 -14 11 -14 11 -3 -3 10 -13 9 -19 -3 -29 -8 -7 -15 -18 -15
-24 0 -6 4 -5 9 3 12 19 39 23 64 9 14 -7 17 -7 13 1 -4 6 1 12 11 13 68 5 74
5 69 -9 -4 -8 -6 -18 -6 -23 0 -13 -97 -110 -109 -110 -6 0 -14 -1 -18 -2 -39
-8 -72 -16 -90 -22 -18 -6 -22 -4 -17 7 7 20 -8 28 -26 15 -13 -8 -12 -9 1 -5
13 4 16 0 15 -17 -1 -31 -19 -23 -42 19 -10 19 -21 32 -25 29 -4 -2 -10 0 -14
6 -3 5 -4 10 -1 10 2 0 11 3 20 6 10 4 16 1 16 -9 0 -22 20 -32 33 -17 9 10 8
12 -7 6 -14 -5 -17 -2 -13 11 11 42 11 48 0 45 -14 -2 -17 10 -6 21 3 4 12 2
20 -4 9 -9 13 -8 13 0 0 6 -3 11 -7 11 -5 0 -13 11 -19 25 -10 21 -9 26 10 40
16 12 17 15 4 11 -26 -8 -22 20 7 49 13 14 20 25 15 25 -5 0 -12 -5 -15 -11
-5 -6 -12 -4 -21 8 -13 16 -13 15 -8 -17 4 -28 3 -32 -7 -23 -21 20 -20 49 1
68 11 10 20 28 20 39 0 16 -4 13 -18 -13 -19 -38 -42 -52 -42 -26 0 9 5 13 10
10 6 -4 15 7 21 23 9 26 52 58 72 54 4 -1 6 3 5 9 -2 6 3 14 11 17 8 3 11 0 7
-7 -12 -19 0 -12 20 11 15 19 16 20 2 9 -11 -8 -18 -9 -18 -3 0 6 10 14 23 18
12 4 61 46 109 94 48 48 91 84 94 81 4 -3 4 -1 0 6 -3 6 3 46 14 87 11 42 20
79 20 82 0 4 7 1 15 -6 10 -8 15 -30 15 -62z m-2161 -341 c12 4 13 3 3 -5 -8
-5 -13 -13 -12 -18 1 -5 -3 -9 -9 -10 -8 -2 -8 -1 -1 3 7 3 5 13 -7 27 -9 11
-11 16 -4 9 7 -6 21 -9 30 -6z m2015 -12 c-9 -14 -20 -25 -25 -25 -5 0 -2 11
7 25 9 14 20 25 25 25 5 0 2 -11 -7 -25z m-1980 -30 c-23 -17 -34 -19 -34 -4
0 5 4 8 9 4 5 -3 12 -1 16 5 3 5 11 10 18 10 6 0 2 -7 -9 -15z m36 -5 c-8 -5
-19 -10 -25 -10 -5 0 -3 5 5 10 8 5 20 10 25 10 6 0 3 -5 -5 -10z m1690 -3 c0
-8 -7 -14 -15 -14 -25 0 -17 17 13 26 1 1 2 -5 2 -12z m-1646 -29 c-3 -4 0 -8
5 -8 6 0 11 6 11 13 0 9 2 9 9 -1 4 -7 12 -12 17 -11 13 2 54 -12 55 -20 0 -3
2 -15 4 -26 5 -26 -7 -46 -30 -49 -11 -2 -21 -8 -23 -14 -2 -8 3 -10 14 -5 12
4 15 2 12 -8 -3 -8 -11 -13 -18 -11 -8 2 -10 -3 -6 -15 6 -16 6 -16 -12 0 -26
24 -39 21 -17 -3 10 -11 15 -20 10 -20 -4 0 -14 8 -22 18 -13 16 -14 15 -10
-6 3 -13 1 -20 -5 -16 -5 3 -8 15 -5 25 3 12 -3 25 -16 34 -12 8 -16 15 -10
15 6 0 16 -7 23 -15 11 -13 15 -13 21 -3 13 20 11 28 -6 22 -8 -4 -15 -1 -15
6 0 6 5 8 10 5 6 -3 10 1 10 9 0 9 -3 15 -7 14 -5 -2 -19 8 -32 21 l-24 24
-12 -23 c-10 -19 -13 -20 -18 -6 -4 10 -3 15 2 12 5 -3 11 1 15 9 4 12 10 13
31 3 14 -6 25 -18 25 -27 0 -11 3 -12 12 -3 14 14 -3 38 -33 47 -10 4 -19 11
-19 16 0 6 4 8 9 5 5 -4 11 -3 14 1 2 5 2 2 0 -5 -1 -8 3 -12 9 -9 7 2 12 13
10 23 -2 15 -1 16 7 4 5 -8 7 -18 5 -22z m1635 -38 c3 -3 7 -13 9 -24 3 -17 1
-17 -27 3 -30 22 -35 38 -16 54 6 5 4 7 -5 4 -8 -2 -14 -10 -12 -16 1 -7 -2
-9 -9 -5 -7 4 -9 3 -6 -3 4 -7 -4 -10 -22 -8 -22 2 -28 -1 -24 -12 5 -12 7
-12 15 -1 7 10 8 8 4 -5 -3 -10 -2 -15 3 -12 5 3 12 1 16 -5 4 -6 11 -7 17 -4
6 4 6 -1 -1 -14 -12 -23 -38 -35 -46 -22 -4 6 -12 10 -18 9 -9 0 -8 -2 1 -6 7
-2 17 -14 23 -25 9 -16 8 -19 -2 -13 -8 5 -10 4 -5 -3 12 -20 28 -13 21 8 -7
21 9 28 21 8 5 -7 3 -8 -7 -2 -10 5 -8 0 4 -19 9 -15 16 -27 15 -28 -24 -6
-38 -5 -38 4 0 5 -3 7 -6 4 -15 -14 -43 13 -38 37 3 17 -2 29 -18 40 -11 8
-24 13 -28 11 -10 -6 -5 33 5 42 4 5 5 3 1 -4 -4 -7 0 -12 11 -11 10 0 26 -3
36 -7 13 -6 16 -4 11 9 -3 9 -10 14 -14 11 -5 -3 -12 0 -16 6 -4 8 -3 9 4 5 7
-4 12 -3 12 2 0 5 11 10 24 10 13 0 35 9 47 21 l23 21 15 -27 c7 -16 17 -30
20 -33z m-1709 35 c0 -8 -2 -15 -4 -15 -2 0 -6 7 -10 15 -3 8 -1 15 4 15 6 0
10 -7 10 -15z m-43 -18 c0 -8 -6 -14 -14 -14 -9 0 -10 4 -2 14 6 7 12 13 14
13 1 0 2 -6 2 -13z m1693 -29 c0 8 11 4 33 -11 17 -14 37 -23 43 -20 22 8 23
-35 0 -51 -15 -11 -16 -14 -4 -10 25 8 36 -25 15 -41 -14 -10 -15 -14 -4 -24
8 -6 17 -8 21 -4 4 4 4 -1 0 -10 -6 -17 -8 -17 -25 -1 -25 23 -34 13 -34 -38
0 -39 2 -43 25 -43 22 0 25 -4 22 -28 -2 -16 1 -26 6 -23 6 3 13 -1 16 -10 10
-25 2 -26 -27 -4 -14 11 -32 18 -39 15 -10 -4 -15 3 -16 22 -5 88 -9 120 -16
131 -4 6 -5 16 -1 21 3 5 1 12 -5 16 -6 4 -8 11 -4 16 3 5 0 16 -6 24 -14 17
-14 17 18 20 26 3 27 -4 8 -30 -11 -16 -11 -21 0 -33 17 -16 19 -36 2 -26 -7
4 -8 3 -4 -4 4 -6 13 -9 21 -6 8 4 13 10 10 14 -3 4 5 10 17 13 12 4 19 9 16
12 -3 4 -15 2 -25 -4 -17 -9 -20 -6 -20 19 0 16 3 29 6 28 18 -2 31 3 31 12 0
6 -3 9 -7 9 -20 -3 -34 2 -28 11 3 6 1 10 -4 10 -6 0 -11 -5 -11 -11 0 -5 -5
-7 -11 -3 -8 4 -7 9 2 15 11 7 11 9 2 10 -7 1 -18 2 -25 3 -6 0 -13 8 -15 16
-4 13 -3 13 6 0 8 -11 11 -11 11 -2z m-1615 -8 c3 -5 1 -10 -4 -10 -6 0 -11 5
-11 10 0 6 2 10 4 10 3 0 8 -4 11 -10z m-155 -5 c0 -7 -30 -13 -34 -7 -3 4 4
9 15 9 10 1 19 0 19 -2z m40 1 c0 -2 -7 -7 -16 -10 -8 -3 -12 -2 -9 4 6 10 25
14 25 6z m17 -19 c0 -7 -9 -14 -20 -14 -19 -2 -19 -2 -1 12 11 8 19 15 20 15
0 0 1 -6 1 -13z m113 -8 c0 -4 -10 -6 -21 -4 -32 6 -34 13 -4 13 14 0 25 -4
25 -9z m-47 -11 c14 -12 14 -15 2 -32 -8 -11 -15 -15 -15 -10 0 6 6 16 13 23
10 11 9 13 -6 8 -12 -5 -16 -3 -11 5 5 8 2 9 -10 5 -10 -4 -15 -3 -11 3 8 13
18 13 38 -2z m-93 -24 c0 -8 -19 -13 -24 -6 -3 5 1 9 9 9 8 0 15 -2 15 -3z
m47 -14 c-1 -11 -5 -20 -9 -20 -10 0 -10 4 -2 24 8 22 13 20 11 -4z m93 -11
c0 -4 -7 -6 -15 -3 -8 4 -15 10 -15 15 0 4 7 6 15 3 8 -4 15 -10 15 -15z m-20
-55 c0 -3 -5 -2 -12 2 -8 5 -9 2 -5 -9 4 -11 0 -20 -12 -26 -13 -7 -18 -6 -18
4 0 7 5 11 12 9 6 -3 11 5 11 16 0 11 -8 23 -18 26 -10 3 -18 10 -18 15 0 6
14 1 30 -11 17 -12 30 -24 30 -26z m5 36 c13 -6 15 -9 5 -9 -8 0 -22 4 -30 9
-18 12 -2 12 25 0z m-79 -18 c-3 -3 0 -12 6 -21 10 -13 10 -14 -2 -4 -16 15
-23 46 -8 37 5 -3 7 -9 4 -12z m1764 -42 c0 -5 -2 -10 -4 -10 -3 0 -8 5 -11
10 -3 6 -1 10 4 10 6 0 11 -4 11 -10z m-1759 -23 c-10 -9 -11 -8 -5 6 3 10 9
15 12 12 3 -3 0 -11 -7 -18z m-24 -4 c0 -10 -4 -10 -16 -1 -9 7 -18 13 -20 15
-2 1 5 1 16 0 11 0 20 -7 20 -14z m88 7 c-3 -5 -12 -10 -18 -10 -7 0 -6 4 3
10 19 12 23 12 15 0z m-110 -28 c-3 -3 -11 0 -18 7 -9 10 -8 11 6 5 10 -3 15
-9 12 -12z m33 -12 c-7 -10 -14 -17 -17 -15 -4 4 18 35 25 35 2 0 -1 -9 -8
-20z m49 -12 c-3 -7 -5 -2 -5 12 0 14 2 19 5 13 2 -7 2 -19 0 -25z m1728 12
c-3 -5 -10 -10 -16 -10 -5 0 -9 5 -9 10 0 6 7 10 16 10 8 0 12 -4 9 -10z
m-1700 -40 c3 -6 -1 -7 -9 -4 -18 7 -21 14 -7 14 6 0 13 -4 16 -10z m-21 -35
c3 -8 1 -15 -4 -15 -6 0 -10 7 -10 15 0 8 2 15 4 15 2 0 6 -7 10 -15z m1865
-24 c38 -27 41 -52 6 -49 -14 1 -25 6 -25 10 0 4 -8 8 -17 8 -15 0 -16 -2 -3
-10 11 -7 8 -10 -15 -10 -17 0 -37 6 -44 13 -11 10 -13 10 -7 0 11 -19 -19
-16 -35 4 -12 15 -12 16 3 11 20 -8 51 23 43 45 -6 13 -1 14 29 7 19 -4 48
-17 65 -29z m-149 20 c0 -5 9 -13 20 -16 11 -4 18 -11 15 -16 -4 -5 -14 -5
-27 2 -15 8 -19 8 -14 0 4 -6 5 -11 2 -11 -2 0 -11 -2 -19 -5 -8 -4 -14 0 -14
9 0 8 4 13 8 11 4 -3 9 2 12 10 4 10 1 12 -11 9 -14 -5 -15 -4 -2 5 19 13 30
14 30 2z m-1775 -41 c10 -11 14 -20 9 -20 -5 0 -15 9 -22 20 -7 11 -11 20 -9
20 2 0 12 -9 22 -20z m57 -8 c-7 -2 -10 -8 -7 -13 4 -5 -2 -6 -11 -2 -11 4
-13 8 -6 11 7 2 10 8 7 13 -4 5 2 6 11 2 11 -4 13 -8 6 -11z m1718 -12 c0 -5
-2 -10 -4 -10 -3 0 -8 5 -11 10 -3 6 -1 10 4 10 6 0 11 -4 11 -10z m3 -14 c3
3 14 0 25 -7 17 -11 19 -17 10 -33 -15 -27 -40 -46 -53 -38 -5 3 -4 -1 3 -10
10 -13 10 -17 -1 -21 -10 -4 -13 6 -13 37 1 24 5 39 11 36 6 -3 9 -10 9 -17
-1 -6 5 -9 12 -6 12 4 12 8 2 21 -11 13 -10 15 4 9 12 -4 15 -2 11 9 -3 9 -9
11 -17 5 -14 -11 -40 -1 -44 17 -2 10 2 10 17 3 10 -6 21 -8 24 -5z m-1710
-36 c-3 -12 -8 -19 -11 -16 -5 6 5 36 12 36 2 0 2 -9 -1 -20z m-33 -5 c0 -8
-4 -15 -10 -15 -5 0 -7 7 -4 15 4 8 8 15 10 15 2 0 4 -7 4 -15z m1824 -6 c-3
-5 2 -9 11 -9 9 0 14 -4 11 -9 -4 -5 -1 -11 4 -13 15 -5 24 -68 10 -68 -6 0
-8 5 -5 10 6 10 -50 27 -68 22 -5 -1 -6 2 -3 7 3 5 -1 11 -9 15 -8 3 -14 2
-14 -2 3 -19 -2 -26 -10 -13 -11 17 46 81 66 74 7 -3 10 -9 7 -14z m-1850 -17
c3 -5 -1 -9 -9 -9 -8 0 -12 4 -9 9 3 4 7 8 9 8 2 0 6 -4 9 -8z m49 -9 c-7 -2
-19 -2 -25 0 -7 3 -2 5 12 5 14 0 19 -2 13 -5z m1717 -68 c0 -8 -5 -15 -12
-15 -6 0 -8 -3 -5 -6 4 -4 14 -1 22 6 13 11 21 8 51 -21 l34 -33 -22 -12 c-23
-12 -64 -1 -54 14 3 5 1 14 -3 21 -6 9 -11 10 -15 2 -4 -6 -3 -11 2 -11 5 0 9
-7 9 -15 0 -9 -5 -14 -11 -12 -6 2 -11 13 -11 25 0 11 -3 24 -7 27 -8 8 2 45
13 45 5 0 9 -7 9 -15z m-1720 -45 c0 -5 -2 -10 -4 -10 -3 0 -8 5 -11 10 -3 6
-1 10 4 10 6 0 11 -4 11 -10z"/>
<path d="M2218 1668 c8 -9 11 -21 8 -26 -3 -5 1 -9 9 -9 8 0 13 3 10 5 -3 3 1
12 8 20 10 13 9 14 -1 8 -7 -4 -20 -2 -30 6 -15 12 -16 11 -4 -4z"/>
<path d="M2145 1649 c-4 -6 -4 -13 -1 -16 3 -4 6 -1 6 6 0 7 5 9 10 6 6 -3 10
-1 10 4 0 14 -17 14 -25 0z"/>
<path d="M2160 1620 c-8 -5 -12 -11 -10 -14 3 -2 14 2 24 10 22 15 10 19 -14
4z"/>
<path d="M2175 1600 c-3 -6 1 -7 9 -4 18 7 21 14 7 14 -6 0 -13 -4 -16 -10z"/>
<path d="M2293 1585 c0 -8 4 -12 9 -9 5 3 6 10 3 15 -9 13 -12 11 -12 -6z"/>
<path d="M2130 1580 c0 -5 5 -10 10 -10 6 0 10 5 10 10 0 6 -4 10 -10 10 -5 0
-10 -4 -10 -10z"/>
<path d="M2185 1579 c-4 -6 -4 -13 -1 -16 3 -4 6 -1 6 6 0 7 5 9 12 5 7 -4 8
-3 4 4 -9 15 -13 15 -21 1z"/>
<path d="M2195 1549 c-4 -6 -5 -12 -2 -15 2 -3 7 2 10 11 7 17 1 20 -8 4z"/>
<path d="M2195 1520 c-16 -7 -17 -9 -3 -9 9 -1 20 4 23 9 7 11 7 11 -20 0z"/>
<path d="M2295 1520 c3 -5 8 -10 11 -10 2 0 4 5 4 10 0 6 -5 10 -11 10 -5 0
-7 -4 -4 -10z"/>
<path d="M2140 1506 c0 -2 7 -6 15 -10 8 -3 15 -1 15 4 0 6 -7 10 -15 10 -8 0
-15 -2 -15 -4z"/>
<path d="M2230 1499 c0 -5 5 -7 10 -4 6 3 10 8 10 11 0 2 -4 4 -10 4 -5 0 -10
-5 -10 -11z"/>
<path d="M2177 1483 c-3 -5 5 -8 18 -8 13 0 21 3 18 8 -2 4 -10 7 -18 7 -8 0
-16 -3 -18 -7z"/>
<path d="M2140 1459 c-13 -9 -12 -10 3 -5 15 5 17 2 13 -17 -3 -12 -3 -16 0
-9 3 6 10 10 14 7 5 -3 12 0 16 7 4 7 4 10 -1 6 -4 -4 -13 -1 -19 7 -8 11 -15
12 -26 4z"/>
<path d="M2215 1430 c-4 -6 -10 -8 -14 -6 -4 3 -13 0 -21 -5 -13 -9 -13 -10 0
-6 8 2 22 1 30 -4 12 -5 16 -2 16 12 0 22 -2 23 -11 9z"/>
<path d="M2160 1391 c0 -10 19 -25 25 -20 1 2 -3 10 -11 17 -8 7 -14 8 -14 3z"/>
<path d="M2195 1360 c-16 -7 -17 -9 -3 -9 9 -1 20 4 23 9 7 11 7 11 -20 0z"/>
<path d="M2140 1346 c0 -2 7 -6 15 -10 8 -3 15 -1 15 4 0 6 -7 10 -15 10 -8 0
-15 -2 -15 -4z"/>
<path d="M2233 1332 c2 -12 6 -24 10 -28 3 -4 4 4 2 16 -6 30 -16 40 -12 12z"/>
<path d="M2173 1318 c-4 -7 -1 -8 7 -3 10 6 12 3 7 -11 -7 -18 -6 -18 6 -2 8
10 16 17 18 15 2 -1 3 0 1 2 -6 10 -32 9 -39 -1z"/>
<path d="M2270 1320 c0 -5 5 -10 11 -10 5 0 7 5 4 10 -3 6 -8 10 -11 10 -2 0
-4 -4 -4 -10z"/>
<path d="M446 1558 c9 -9 13 -22 9 -29 -5 -7 -3 -10 6 -7 8 3 14 10 14 16 0 6
7 17 15 24 12 11 12 11 1 -4 -11 -15 -11 -19 3 -24 9 -3 13 -10 10 -16 -3 -5
-12 -7 -20 -4 -18 7 -29 -13 -14 -27 9 -9 15 -7 26 7 8 12 14 15 14 7 0 -11 3
-11 15 -1 16 13 16 45 0 45 -6 0 -8 -4 -7 -10 2 -5 0 -6 -5 -2 -4 5 -8 16 -8
25 0 11 -10 16 -37 17 -34 0 -36 -1 -22 -17z m84 -38 c0 -5 -5 -10 -11 -10 -5
0 -7 5 -4 10 3 6 8 10 11 10 2 0 4 -4 4 -10z"/>
<path d="M465 1460 c3 -5 11 -10 16 -10 6 0 7 5 4 10 -3 6 -11 10 -16 10 -6 0
-7 -4 -4 -10z"/>
<path d="M2050 1561 c0 -6 4 -13 10 -16 6 -3 7 1 4 9 -7 18 -14 21 -14 7z"/>
<path d="M1916 1522 c-6 -10 21 -27 38 -23 4 1 13 -3 20 -8 14 -11 41 2 33 16
-3 5 -21 9 -39 8 -18 -1 -36 2 -39 8 -4 6 -9 5 -13 -1z m84 -18 c0 -8 -19 -13
-24 -6 -3 5 1 9 9 9 8 0 15 -2 15 -3z"/>
<path d="M1955 1460 c-3 -5 -1 -10 4 -10 6 0 11 5 11 10 0 6 -2 10 -4 10 -3 0
-8 -4 -11 -10z"/>
<path d="M1950 1436 c0 -2 7 -7 16 -10 8 -3 12 -2 9 4 -6 10 -25 14 -25 6z"/>
<path d="M2065 1260 c-2 -3 5 -6 15 -7 11 -1 22 2 25 7 3 5 -4 8 -16 7 -11 -1
-22 -4 -24 -7z"/>
<path d="M2190 1201 c0 -6 4 -13 10 -16 6 -3 7 1 4 9 -7 18 -14 21 -14 7z"/>
<path d="M2150 1180 c0 -6 4 -9 9 -6 5 4 12 1 14 -4 3 -6 4 -5 3 2 -3 15 -26
23 -26 8z"/>
<path d="M2150 1091 c0 -10 19 -25 25 -20 1 2 -3 10 -11 17 -8 7 -14 8 -14 3z"/>
<path d="M2140 1060 c8 -5 20 -10 25 -10 6 0 3 5 -5 10 -8 5 -19 10 -25 10 -5
0 -3 -5 5 -10z"/>
<path d="M2110 975 c0 -8 4 -15 10 -15 5 0 7 7 4 15 -4 8 -8 15 -10 15 -2 0
-4 -7 -4 -15z"/>
<path d="M973 613 c-21 -4 -23 -10 -23 -73 0 -54 3 -69 16 -74 38 -15 89 49
63 80 -9 11 -9 18 -1 26 8 8 8 17 1 30 -10 18 -15 19 -56 11z m27 -27 c0 -3
-4 -8 -10 -11 -5 -3 -10 -1 -10 4 0 6 5 11 10 11 6 0 10 -2 10 -4z m8 -66
c-15 -23 -28 -26 -28 -7 0 17 10 27 27 27 11 0 11 -4 1 -20z"/>
<path d="M1353 586 c-7 -8 -8 -18 -2 -27 5 -8 9 -30 9 -50 0 -23 6 -39 15 -43
12 -4 15 4 15 38 0 25 5 46 11 48 8 3 8 10 -2 26 -16 25 -29 27 -46 8z"/>
<path d="M1280 581 c-23 -5 -25 -11 -26 -58 0 -35 4 -54 13 -57 7 -3 13 2 14
12 1 34 10 67 20 77 7 7 10 -4 7 -35 -2 -35 1 -45 14 -48 15 -3 16 7 9 94 -1
16 -21 21 -51 15z"/>
<path d="M1060 560 c-18 -33 -8 -73 20 -87 34 -17 54 4 53 53 -2 53 -51 76
-73 34z m41 -20 c1 -5 2 -17 2 -25 0 -30 -3 -36 -13 -30 -5 3 -10 19 -10 36 0
26 18 43 21 19z"/>
<path d="M1152 537 c0 -55 5 -63 46 -69 l32 -5 0 59 c0 42 -4 58 -13 58 -9 0
-14 -12 -15 -30 0 -16 -5 -37 -11 -47 -8 -14 -10 -8 -11 30 0 34 -4 47 -14 47
-10 0 -14 -13 -14 -43z"/>
<path d="M1428 574 c-4 -3 0 -22 9 -42 8 -20 16 -49 16 -66 3 -49 21 -39 39
22 9 32 20 66 24 75 4 12 1 17 -10 17 -8 0 -18 -11 -22 -25 -3 -14 -10 -25
-14 -25 -4 0 -11 11 -14 25 -6 24 -16 31 -28 19z"/>
</g>
</svg>
